<?xml version="1.0" encoding="UTF-8"?>
<svg width="258px" height="258px" viewBox="0 0 258 258" version="1.1" xmlns="http://www.w3.org/2000/svg" xmlns:xlink="http://www.w3.org/1999/xlink">
    <!-- Generator: Sketch 51.2 (57519) - http://www.bohemiancoding.com/sketch -->
    <title>Group</title>
    <desc>Created with Sketch.</desc>
    <defs>
        <path d="M144.13797,248.74806 C135.095638,257.790392 120.434171,257.790392 111.391839,248.74806 L6.78174874,144.139256 C-2.26058291,135.096925 -2.26058291,120.434171 6.78174874,111.391839 L111.391839,6.78174874 C120.434171,-2.26058291 135.095638,-2.26058291 144.13797,6.78174874 L248.74806,111.391839 C257.790392,120.434171 257.790392,135.096925 248.74806,144.139256 L144.13797,248.74806" id="path-1"></path>
    </defs>
    <g id="Page-1" stroke="none" stroke-width="1" fill="none" fill-rule="evenodd">
        <g id="Group" transform="translate(1.000000, 1.000000)">
            <mask id="mask-2" fill="white">
                <use xlink:href="#path-1"></use>
            </mask>
            <use id="Clip-114" stroke="#000000" fill="#FDC554" xlink:href="#path-1"></use>
            <path d="M142.275538,237.683779 L141.36603,236.772985 C137.493869,240.643859 132.430472,242.574794 127.355497,242.57608 C122.280523,242.574794 117.218412,240.643859 113.346251,236.774271 L18.0306332,141.457367 C14.1597588,137.585206 12.2288241,132.523095 12.2275377,127.448121 C12.2288241,122.373146 14.1597588,117.309749 18.0306332,113.438874 L113.346251,18.1232563 C117.218412,14.2523819 122.280523,12.3214472 127.355497,12.3201608 C132.430472,12.3214472 137.493869,14.2523819 141.36603,18.1232563 L236.680362,113.438874 C240.552523,117.311035 242.482171,122.373146 242.483457,127.448121 C242.482171,132.523095 240.552523,137.585206 236.680362,141.457367 L141.36603,236.774271 L143.185045,238.593286 L238.500663,143.276382 C242.868101,138.908945 245.058894,133.172744 245.056322,127.448121 C245.058894,121.723497 242.869387,115.987296 238.500663,111.618573 L143.185045,16.3042412 C138.817608,11.9355176 133.080121,9.74601005 127.355497,9.74729648 C121.630874,9.74601005 115.894673,11.9355176 111.527236,16.3042412 L16.2103317,111.618573 C11.8428945,115.987296 9.65338693,121.723497 9.65467337,127.448121 C9.65338693,133.172744 11.8428945,138.908945 16.2103317,143.276382 L111.527236,238.593286 C115.894673,242.960724 121.630874,245.150231 127.355497,245.148945 C133.080121,245.150231 138.816322,242.960724 143.185045,238.593286 L142.275538,237.683779" id="Fill-107" fill="#131514" mask="url(#mask-2)"></path>
            <polygon id="Fill-108" fill="#131514" mask="url(#mask-2)" points="96.7268342 182.373628 110.877588 182.373628 110.877588 62.2324422 96.7268342 62.2324422"></polygon>
            <path d="M170.696683,182.373628 L170.696683,133.805668 C170.696683,132.025246 170.012302,130.287276 168.799196,128.984121 L147.691417,106.31204 L147.691417,62.2324422 L133.540663,62.2324422 L133.540663,109.095879 C133.540663,110.875015 134.223759,112.614271 135.436864,113.916141 L156.544643,136.589508 L156.544643,182.373628 L170.696683,182.373628" id="Fill-109" fill="#131514" mask="url(#mask-2)"></path>
        </g>
    </g>
</svg>